<?xml version="1.0" encoding="utf-8"?>
<!-- Generator: Adobe Illustrator 24.3.0, SVG Export Plug-In . SVG Version: 6.00 Build 0)  -->
<svg version="1.1" id="Layer_1" xmlns="http://www.w3.org/2000/svg" xmlns:xlink="http://www.w3.org/1999/xlink" x="0px" y="0px"
	 viewBox="0 0 3061.4 3061.4" style="enable-background:new 0 0 3061.4 3061.4;" xml:space="preserve">
<style type="text/css">
	.st0{fill:#F2F2F2;}
	.st1{fill:#FFFFFF;}
	.st2{fill:#F7D77F;}
	.st3{fill:#004686;}
	.st4{fill:#E6E6E6;}
	.st5{fill:#153E49;}
	.st6{fill:#113542;}
	.st7{fill:#1A1A1A;}
	.st8{fill:#5D7A7F;}
	.st9{fill:#DAE7E8;}
	.st10{fill:#688689;}
	.st11{opacity:0.28;enable-background:new    ;}
</style>
<g>
	<g>
		<g>
			<path class="st0" d="M841.5,737.1h1411.4l1.2-1.4c61.2-73.6,61.2-180.4,0-253.7l-1.2-1.4h-98.7H841.5l7,7.5
				c65.5,70.5,63,180.4-5.8,247.8L841.5,737.1z"/>
			<path class="st1" d="M1971.9,2391.6H683.1V632.8c0-82.1,66.6-148.7,148.7-148.7h1260.8c0,0,130.9-7.7,128.2,0
				c-91.7,1.7-87.1,256.4-87.1,256.4v1489.2C2133.5,2319,2061.1,2391.6,1971.9,2391.6z"/>
			<path class="st0" d="M1970,2391.6c-57.5,0-1411.4,0-1411.4,0l-1.2-1.4c-61.2-73.6-61.2-180.4,0-253.7l1.2-1.4H1970l-7,7.5
				C1897.6,2213.2,1886.4,2333.3,1970,2391.6C1970,2391.6,2027.5,2391.6,1970,2391.6z"/>
		</g>
		<rect x="996.7" y="768.6" class="st2" width="876.7" height="73.8"/>
		<rect x="1603.5" y="2022.2" class="st3" width="392" height="23.9"/>
		<rect x="874.7" y="981" class="st4" width="1120.8" height="29.9"/>
		<rect x="874.7" y="1128.1" class="st4" width="1120.8" height="29.9"/>
		<rect x="874.7" y="1275.3" class="st4" width="1120.8" height="29.9"/>
		<rect x="874.7" y="1422.4" class="st4" width="1120.8" height="29.9"/>
		<rect x="874.7" y="1569.6" class="st4" width="1120.8" height="29.9"/>
		<rect x="874.7" y="1863.9" class="st4" width="1120.8" height="29.9"/>
		<rect x="874.7" y="1716.7" class="st4" width="1120.8" height="29.9"/>
	</g>
	<g>
		<polygon class="st5" points="2111.9,1852.1 2046.8,1813.1 2091.2,1710.9 2513.2,1007.1 2607,1063.2 2185.5,1766.7 		"/>
		<path class="st6" d="M2566.3,1148.2l-111.4-66.8c-2.1-1.2-2.7-3.9-1.5-6l202.2-337.2c1.2-2.1,3.9-2.7,6-1.5l111.4,66.8
			c2.1,1.2,2.7,3.9,1.5,6l-202.2,337.2C2570.9,1148.8,2568.4,1149.4,2566.3,1148.2z"/>
		<path class="st7" d="M2764.4,848.1l-3.5-2.1l-132.7-79.6c-1.7-1-3.9-0.4-4.8,1.2l-8.5,14.1c-1,1.7-0.4,3.9,1.2,4.8l129.6,77.6
			c1.7,1,2.1,3.1,1.2,4.8l-112,186.7c-1,1.7-0.4,3.9,1.2,4.8l13.5,8.1c1.7,1,3.9,0.4,4.8-1.2l124-206.8c1-1.7,0.4-3.9-1.2-4.8
			L2764.4,848.1z"/>
		<polygon class="st8" points="2049.3,1924.3 2009,1900 2091.2,1710.9 2185.1,1767.3 		"/>
		<polygon class="st9" points="2049.3,1924.3 2009,1900 1987.9,1913.7 1969.4,1996.3 1980.2,2002.9 2046.1,1947.5 		"/>
		<path class="st10" d="M2186.8,1777.6l-107.6-64.5c-2.9-1.7-3.9-5.4-2.1-8.3v-0.2c1.7-2.9,5.4-3.9,8.3-2.1l107.6,64.5
			c2.9,1.7,3.9,5.4,2.1,8.3v0.2C2193.4,1778.3,2189.7,1779.3,2186.8,1777.6z"/>
		<path class="st10" d="M2178.1,1792.2l-107.6-64.5c-2.9-1.7-3.9-5.4-2.1-8.3v-0.2c1.7-2.9,5.4-3.9,8.3-2.1l107.6,64.5
			c2.9,1.7,3.9,5.4,2.1,8.3v0.2C2184.7,1793,2180.8,1793.8,2178.1,1792.2z"/>
		<g>
			<path class="st5" d="M2013.2,1953.9c-2.5,4.2-7.9,5.6-12.2,3.1c-4.2-2.5-5.6-7.9-3.1-12.2c2.5-4.2,7.9-5.6,12.2-3.1
				C2014.4,1944.4,2015.7,1949.8,2013.2,1953.9z"/>
			
				<rect x="1962.1" y="1974.4" transform="matrix(0.5142 -0.8577 0.8577 0.5142 -728.6609 2666.6162)" class="st5" width="54.8" height="4.2"/>
		</g>
		<polygon class="st11" points="2464.9,1087.4 2559,1143.8 2507,1230.3 		"/>
	</g>
</g>
</svg>
