<?xml version="1.0" encoding="utf-8"?>
<!-- Generator: Adobe Illustrator 24.3.0, SVG Export Plug-In . SVG Version: 6.00 Build 0)  -->
<svg version="1.1" id="Layer_1" xmlns="http://www.w3.org/2000/svg" xmlns:xlink="http://www.w3.org/1999/xlink" x="0px" y="0px"
	 viewBox="0 0 3061.4 3061.4" style="enable-background:new 0 0 3061.4 3061.4;" xml:space="preserve">
<style type="text/css">
	.st0{fill:#96432A;}
	.st1{fill:#6C301E;}
	.st2{fill:#FF941E;}
	.st3{fill:#A86114;}
	.st4{fill:#FFC9B9;}
	.st5{fill:#1D253D;}
	.st6{fill:#FFFFFF;}
	.st7{fill:#465A94;}
	.st8{fill:#006CB0;}
	.st9{fill:#0081C9;}
	.st10{fill:#FFAB90;}
	.st11{fill:#3B1411;}
	.st12{fill:#FEB12F;}
	.st13{fill:#FEA30A;}
	.st14{fill:#BF6D3E;}
	.st15{fill:#80410E;}
	.st16{fill:#001E4A;}
	.st17{fill:#A6F3FF;}
	.st18{fill:#47BED1;}
	.st19{fill:#DD4F05;}
	.st20{fill:#7A2923;}
	.st21{fill:#804E26;}
</style>
<g>
	<g>
		<path class="st0" d="M1198.7,970.2c29.6,9.3,53.3,38.6,58.1,72.2c1.1,7.7,1.4,16,5.4,22.5c4.3,6.9,12.3,11.1,14,19.2
			c1.8,8.6-4.7,18.2-1,26c3.8,8,15.5,8,19.1,16.1c4,8.9-5.1,20.1-1.4,29.2c3.4,8.3,14,8.1,21.1,12.8c6.5,4.3,9.8,13.1,9.8,21.5
			c0,8.4-2.9,16.5-6.3,23.9c-20.3,44.4-61.8,74.6-106,84.6c-44.2,10-90.7,1.2-132.3-18.1c-9.9-4.6-19.9-10-26.6-19.3
			c-6.6-9.3-8.9-23.4-2.5-32.9c2.4-3.6,5.8-6.3,7.6-10.4c6-14.2-13.1-28.6-10.3-44c1.5-8.3,8.9-13.4,15.2-18.2
			c6.3-4.9,12.8-12.3,11.1-20.6c-0.8-4.1-3.5-7.5-4.4-11.5c-2.3-10.5,7.7-18.7,14-27c11.2-14.8,11.9-35.7,14.1-54.8
			C1103.4,988.6,1151.7,955.5,1198.7,970.2z"/>
		<path class="st1" d="M1197.9,989c28,8.8,50.2,36.5,54.8,68.1c1.1,7.3,1.4,15.1,5.1,21.2c4,6.5,11.6,10.4,13.2,18.1
			c1.7,8.1-4.4,17.2-0.9,24.6c3.6,7.5,14.6,7.5,18,15.2c3.8,8.4-4.8,18.9-1.3,27.5c3.2,7.8,13.2,7.7,19.9,12.1
			c6.2,4.1,9.3,12.4,9.2,20.3c0,7.9-2.7,15.5-6,22.6c-19.2,41.9-58.3,70.4-100,79.8s-85.6,1.1-124.8-17c-9.3-4.3-18.8-9.5-25.1-18.2
			s-8.4-22.1-2.4-31c2.3-3.4,5.5-6,7.1-9.8c5.7-13.4-12.4-27-9.7-41.5c1.5-7.8,8.4-12.6,14.3-17.2c5.9-4.6,12-11.6,10.5-19.4
			c-0.8-3.9-3.3-7-4.1-10.9c-2.1-9.9,7.3-17.6,13.2-25.4c10.6-13.9,11.2-33.7,13.3-51.7C1108.1,1006.4,1153.6,975.1,1197.9,989z"/>
		<g>
			<path class="st2" d="M1475,1100.6c0.2-5.8-3.3-11.2-7.8-14.3c-4.4-3.2-9.7-4.5-14.9-5.6c-15.2-3.2-30.6-4.9-46.1-5.1
				c-8-0.1-14.9,6.2-16.5,14.9c-0.8,4.4-1.6,8.9-1.8,13.1c-10.5,7.9-10.1,25.9-8.3,39.8c-24.4,23.8-64.4,57.5-96,66.4
				c-31.6,8.8-65.4,23.4-80.6,55.2c-10.5,22.1-10,48.3-9.1,73.2c0.7,18.1,2.4,38.7,24,44.6c6.8,1.9,13.9,1.6,20.8,0.1
				c44.3-9.4,72.5-51.7,111-77.2c36.8-24.4,74.2-50.4,98.9-89.1C1473.3,1177.9,1498.4,1140.2,1475,1100.6z"/>
			<path class="st2" d="M1478.8,1161.8c7.4-20.1,8.4-40.4-3.9-61.2c0.2-5.8-3.3-11.2-7.8-14.3c-4.4-3.2-9.7-4.5-14.9-5.6
				c-15.2-3.2-30.6-4.9-46.1-5.1c-8-0.1-14.9,6.2-16.5,14.9c-0.8,4.4-1.6,8.9-1.8,13.1c-10.5,7.9-10.1,25.9-8.3,39.8
				c-24.4,23.8-64.4,57.5-96,66.4c-31.6,8.8-65.4,23.4-80.6,55.2c-10.5,22.1-10,48.3-9.1,73.2c0.2,4.1,0.4,8.2,0.8,12.3
				C1298.8,1312.6,1404.8,1253,1478.8,1161.8z"/>
			<path class="st3" d="M1194.8,1350.4c1.6,14.3,6.4,27.7,23.2,32.3c6.8,1.9,13.9,1.6,20.8,0.1c44.3-9.4,72.5-51.7,111-77.2
				c36.8-24.4,74.2-50.4,98.9-89.1c11.7-18.4,23.5-36.5,30.2-54.7C1404.8,1253,1298.8,1312.6,1194.8,1350.4z"/>
			<path class="st4" d="M1397.8,926.8l-3.8,159.5c-0.3,11.8,7.7,21.9,18.4,22.8c8.6,0.7,19.4-0.4,31-6.5c7.9-4.2,12.3-13.7,11-23.3
				l-21.1-155.5C1433.4,923.8,1414.6,922.1,1397.8,926.8z"/>
			<path class="st3" d="M1428,1177.5c-16.6-2.7-31.7-13.1-41.4-28.2c-1.5-2.4-4.6,0.7-3.1,3.1c10.4,16.1,26.6,26.7,44.3,29.6
				C1430.5,1182.5,1430.6,1178,1428,1177.5z"/>
			<path class="st3" d="M1438.8,1121.7c-12.6,0-25-3.6-35.8-10.7c-2.3-1.5-4.5,2.3-2.2,3.8c11.4,7.5,24.5,11.5,37.8,11.5
				C1441.3,1126.3,1441.5,1121.7,1438.8,1121.7z"/>
		</g>
		<path class="st2" d="M1182.8,1194.7c-27.6-8.1-57.5-6.2-84.1,5.3c-12.4,5.4-25.8,15.9-25.3,30.6c0.4,12.8,11.2,21.9,21.4,28
			c37.7,22.4,82.9,29.1,124.7,18.5c20.3-5.2,40.6-23.7,22.3-45.5C1226.7,1213.6,1204,1201,1182.8,1194.7z"/>
		<path class="st2" d="M1094.1,1250.3c-29.5,5.2-53.4,31.7-70.8,60.7c-17.3,29.1-30.2,61.9-49.2,89.4
			c-15.6,22.6-35.1,41.3-49.1,65.4c-14,24.1-21.7,56.8-10.3,82.8c10.8,24.8,35.9,36.2,59.3,36.5c17,0.2,35.2-5.2,46.2-20.7
			c8.2-11.5,11.4-27.3,10.9-42.4c-0.1-3.1-0.3-6.1-0.7-9.1c-2-17.5,4-34.7,14.8-46.8c3.4-3.8,6.5-8.1,9.1-12.2
			c19.1-29.4,36.8-60.8,46-96.3C1109.4,1322.1,1109.9,1282.3,1094.1,1250.3z"/>
		<path class="st2" d="M1097.6,1366.8c0.9-3.1,1.9-6.1,2.7-9.2c9.2-35.5,9.6-75.3-6.2-107.3c-29.5,5.2-53.4,31.7-70.7,60.7
			c-17.3,29.1-30.2,61.9-49.2,89.4c-15.6,22.6-35.1,41.3-49.1,65.4c-14,24.1-21.7,56.8-10.3,82.8c10.8,24.8,35.9,36.2,59.2,36.5
			c17,0.2,35.2-5.2,46.2-20.7c8.2-11.5,11.4-27.3,10.9-42.4c-0.1-3.1-0.3-6.1-0.7-9.1c-0.1-0.7-0.1-1.4-0.1-2.1
			c-5.8-13.6-12.3-25.9-20.6-38.1C1043,1442.8,1074.2,1407.2,1097.6,1366.8z"/>
		<path class="st3" d="M1009.6,1472.7c8.3,12.2,14.8,24.5,20.6,38.1c-1.3-16.8,4.5-33.1,14.9-44.8c3.4-3.8,6.5-8.1,9.1-12.2
			c17.4-26.8,33.6-55.3,43.3-87.1C1074.2,1407.2,1043,1442.8,1009.6,1472.7z"/>
		<path class="st5" d="M1221.5,1761.3c15.9-21.2,29.2-43.1,31.6-59.2l-212.8-43.3c-6.7,19.1-16.6,38.5-21.7,58.1
			C1082.6,1743.4,1154.3,1762.3,1221.5,1761.3z"/>
		<g>
			<g>
				<path class="st6" d="M1190.8,2622.5l44.2-1.3c12.3,14.1,86.4,31.9,90.7,50.9h-145.1C1182.2,2655.1,1185.5,2638.5,1190.8,2622.5z
					"/>
				<path class="st7" d="M1325.6,2672c0.4,1.8,0.8,3.6,1.2,5.5c0.5,2.9-1.4,5.6-4.1,5.6h-138.4c-2.4,0-4.4-2.3-4.2-5
					c0.1-2,0.3-4.1,0.5-6.1L1325.6,2672L1325.6,2672z"/>
			</g>
			<path class="st5" d="M1298.9,1687c-64.1,26.4-93.7,16.1-161,15.2c-5.9,41.8,17.6,131.1,17.6,131.1l2.7,65.4h164.2
				C1321.8,1824.5,1315.4,1750.2,1298.9,1687z"/>
			<path class="st8" d="M1158.2,1898.6l1.9,31l160.6,2c1.4-10.8,2-22,1.7-33.1H1158.2z"/>
			<g>
				<path class="st6" d="M1121.6,2622.5l-44.2-1.3c-12.3,14.1-32.6,31.9-36.9,50.9h91.3C1130.2,2655.1,1126.9,2638.5,1121.6,2622.5z
					"/>
				<path class="st7" d="M1040.5,2672c-0.4,1.8-0.8,3.6-1.2,5.5c-0.5,2.9,1.4,5.6,4.1,5.6h84.7c2.4,0,4.4-2.3,4.2-5
					c-0.1-2-0.3-4.1-0.5-6.1L1040.5,2672L1040.5,2672z"/>
			</g>
			<path class="st7" d="M1158.3,1833.2c0,0,35.5-35,63.2-71.9c-67.2,1-138.9-17.9-202.9-44.4c-15.4,59-23,120-25.2,181.6h162.3
				L1158.3,1833.2z"/>
			<path class="st9" d="M993.3,1898.6c-1.1,11-1,22,0.1,33.1h162.2v-33.1H993.3z"/>
		</g>
		<path class="st2" d="M1281.6,1527c0.3-86.8,8.6-157.3,11.7-244.1c0.3-9.6-2.3-20.4-9.9-24.7c-112.6-63.3-195.7-12-214,2.6
			c-9.4,7.5-13.4,21-9.9,33.4c20.5,72,18.8,138.7,7.9,213.2c-8.5,58.2-65.4,126.6-51.1,201.7c90.6,44.8,199.2,40.3,298.6,19.4
			C1341.3,1676.5,1281.4,1574.3,1281.6,1527z"/>
		<g>
			<path class="st4" d="M1148.3,1119.3c4.1,36.1,6,72.6,5.6,108.9c-0.1,7.3,2.3,14.4,6.3,18.3c11,10.8,24.4,14.9,36.6,10.9
				c6.2-2,9.9-11.7,8.7-21.8c-2.7-23.3-4.6-45.5-5.8-69.8C1185.8,1141.6,1167.8,1127.6,1148.3,1119.3z"/>
			<path class="st10" d="M1199.7,1165.8c-13.9-24.2-31.9-38.1-51.4-46.4c1.1,9.5,2,19,2.8,28.6c13.3,29.1,32.1,58.1,52.7,71.3
				C1202,1201.6,1200.6,1184.3,1199.7,1165.8z"/>
		</g>
		<path class="st3" d="M1279.1,1716.1c-30.1,9.6-61.3,15-92.6,16c-31.3,1-62.8-2.1-93.4-9.5c-17.3-4.2-34.3-9.7-50.9-16.6
			c-2.5-1-3.8,3.3-1.3,4.3c29.6,12.2,60.5,20.2,91.8,24c31.5,3.8,63.5,3.3,94.9-1.5c17.7-2.7,35.2-6.8,52.3-12.3
			C1282.6,1719.7,1281.7,1715.2,1279.1,1716.1z"/>
		<g>
			<g>
				<path class="st4" d="M1236,1052c11.5,56-1.7,121.3-15.1,123.6c-44.5,7.6-74-38.2-74.3-38.8c0.3,0.6-6.4,4.6-10.3,5.4
					c-3.9,0.8-10-2.8-12.9-5.7c-5.5-5.6-11.9-14.9-9.2-23.7c3.2-10.6,17.7-15.7,24.9-6.3c13.5-28.9,1.8-44,1.3-65.1
					c22-19,50.6-27.3,79.1-24.9C1224.2,1016.9,1235,1046.8,1236,1052z"/>
				<path class="st11" d="M1184.6,1077.1c-0.3-0.5-0.7-1-1.3-1.3c-0.5-0.4-1-0.6-1.6-0.6c-0.6-0.2-1.2-0.2-1.8,0
					c-0.4,0.2-0.8,0.3-1.1,0.5c-0.7,0.4-1.2,1-1.7,1.8c-0.2,0.4-0.3,0.8-0.5,1.2c-0.2,0.9-0.2,1.7-0.1,2.6l0.1,0.5
					c0.1,0.7,0.4,1.3,0.8,1.8c0.3,0.5,0.7,1,1.3,1.3c0.5,0.4,1,0.6,1.6,0.6c0.6,0.2,1.2,0.2,1.8,0l1.1-0.5c0.7-0.4,1.2-1,1.7-1.8
					c0.2-0.4,0.3-0.8,0.5-1.2c0.2-0.9,0.2-1.7,0.1-2.6l-0.1-0.5C1185.2,1078.2,1185,1077.6,1184.6,1077.1z"/>
				<path class="st11" d="M1228,1068.6c-0.3-0.5-0.7-1-1.3-1.3c-0.5-0.4-1-0.6-1.6-0.6c-0.6-0.2-1.2-0.2-1.8,0
					c-0.4,0.2-0.8,0.3-1.1,0.5c-0.7,0.4-1.2,1-1.7,1.8c-0.2,0.4-0.3,0.8-0.5,1.2c-0.2,0.9-0.2,1.7-0.1,2.6l0.1,0.5
					c0.1,0.7,0.4,1.3,0.8,1.8c0.3,0.5,0.7,1,1.3,1.3c0.5,0.4,1,0.6,1.6,0.6c0.6,0.2,1.2,0.2,1.8,0l1.1-0.5c0.7-0.4,1.2-1,1.7-1.8
					c0.2-0.4,0.3-0.8,0.5-1.2c0.2-0.9,0.2-1.7,0.1-2.6l-0.1-0.5C1228.7,1069.7,1228.4,1069.1,1228,1068.6z"/>
				<path class="st10" d="M1136.3,1126.1c-1.3,0.9-3.4,0.6-4.1-1.1c-0.4-0.9-0.1-1.7,0.2-2.6c0.3-0.8,1-1.4,1.7-1.6
					c1.1-0.3,1.7-1.8,1.2-2.9c-2.5-4.8-7.4-9.1-12.7-7.1c-2.3,0.9-4.2,3-4.7,5.7c-0.2,1.3,0,2.6,0.5,3.7c0.3,0.7,1.5,2.3,2.2,1.1
					c0.4-0.7,0.1-1.4,0.1-2.2c0-0.8,0.1-1.6,0.4-2.3c0.5-1.5,1.8-2.4,3.2-2.6c2.8-0.4,5.1,1.5,6.7,3.9c-2.2,1.9-3.1,5.3-1.7,8.3
					c1.6,3.2,5.5,4.4,8.4,2.6C1139.5,1128,1137.9,1125,1136.3,1126.1z"/>
			</g>
			<path class="st1" d="M1191,1047.6c-9.3,0.9-18.2,4.8-25.7,11c-2.1,1.8,0.6,5.2,2.7,3.4c6.9-5.7,15.2-9.1,23.8-10
				c1.1-0.1,1.8-1.6,1.6-2.7C1193.2,1048.1,1192.1,1047.5,1191,1047.6z"/>
			<path class="st1" d="M1232.9,1048.8c-4.5-4.7-10.8-6.8-16.9-5.4c-1.1,0.2-1.9,1.5-1.6,2.7c0.3,1.2,1.3,2.1,2.4,1.8
				c0.6-0.2,1.3-0.3,1.9-0.3c0,0,0.3,0,0.3,0c0.1,0,0.2,0,0.3,0c0.3,0,0.6,0,0.9,0c0.7,0,1.3,0.1,1.9,0.2c0.2,0,0.3,0.1,0.5,0.1
				c0,0,0.2,0,0.2,0c0.1,0,0.3,0.1,0.4,0.1c0.2,0,0.3,0.1,0.5,0.1c0.6,0.2,1.2,0.4,1.7,0.7c0.3,0.1,0.6,0.3,0.8,0.4
				c0.1,0,0.1,0,0.1,0.1c0,0,0,0,0,0c0.2,0.1,0.3,0.2,0.4,0.3c0.5,0.3,1.1,0.7,1.5,1.1c0.3,0.2,0.5,0.5,0.8,0.7
				c0.1,0.1,0.2,0.2,0.2,0.2c0,0,0.3,0.3,0.3,0.3c0.8,0.8,2,1.1,2.9,0.2C1233.5,1051.2,1233.7,1049.6,1232.9,1048.8z"/>
			<path class="st10" d="M1218,1147.1c-4.5,0.7-9,1.5-13.5,2.2c-1.1,0.2-1.9,1.5-1.6,2.7c0.3,1.2,1.3,2,2.4,1.8
				c4.5-0.7,9-1.5,13.5-2.2c1.1-0.2,1.9-1.5,1.6-2.7C1220.1,1147.6,1219.1,1146.9,1218,1147.1z"/>
			<path class="st10" d="M1223.7,1103.6c-1.5-2.6-3.9-4.1-6.3-5.5c-2-1.2-4-2.4-4.8-4.8c-0.4-1.2-1.9-1.5-2.8-1
				c-1.1,0.6-1.3,1.9-0.9,3.1c1.7,5.1,6.7,6,10.1,9.2c1.4,1.3,2.3,3.1,1.2,5c-1.2,2.3-3.6,3.6-5.2,5.5c-0.8,0.9-1,2.2-0.2,3.2
				c0.7,0.9,2.1,1.1,2.9,0.2c1.9-2.2,4.4-3.7,5.9-6.3C1225.1,1109.4,1225.3,1106.2,1223.7,1103.6z"/>
			<path class="st11" d="M1217.5,1134.3c-0.5-1.2-1.7-1.5-2.8-1c-5.9,2.5-12.6,2.8-18.7,0.9c-1.1-0.3-2.2,0.2-2.6,1.4
				c-0.4,1.1,0.2,2.6,1.3,2.9c7.3,2.2,14.9,1.8,21.9-1.1C1217.6,1136.9,1217.9,1135.3,1217.5,1134.3z"/>
		</g>
		<g>
			<path class="st3" d="M1125.5,1587.2c-3.9,27.4-18.2,52.4-38.7,68.5c-2.2,1.7,0.7,5,2.8,3.4c21.4-16.8,35.9-43.1,40-71.7
				C1130,1584.5,1125.9,1584.3,1125.5,1587.2z"/>
			<path class="st3" d="M1254.2,1580.8c-42.3,1.4-84.6,2.7-126.9,4.1c-2.6,0.1-2.9,4.6-0.2,4.6c42.3-1.4,84.6-2.7,126.9-4.1
				C1256.6,1585.3,1256.8,1580.7,1254.2,1580.8z"/>
			<path class="st3" d="M1279.8,1638.5c-16.3-12.1-25.7-33.8-24.2-55.4c0.2-2.9-3.9-3.1-4.1-0.2c-1.6,23.2,8.6,46.4,26.1,59.4
				C1279.7,1643.9,1282,1640.1,1279.8,1638.5z"/>
		</g>
		<path class="st4" d="M1120.7,1607.1l-128.2-107c0,0-30.5,17.4-29.1,62.1l138.7,78.4C1102.2,1640.6,1114.4,1624.8,1120.7,1607.1z"
			/>
		<path class="st3" d="M993.6,1498.4c-24,12.3-38.7,42.1-35.4,70.9c0.3,2.9,4.4,1.9,4-1c-3.1-26.9,11.1-54.5,33.3-65.9
			C998,1501.2,996,1497.2,993.6,1498.4z"/>
		<path class="st3" d="M1014.9,1497.9c-10.8-14.4-29.7-19.5-45.3-12.6c-2.5,1.1-0.5,5.1,1.9,4c14-6.2,30.9-1.1,40.4,11.6
			C1013.5,1503.2,1016.5,1500.1,1014.9,1497.9z"/>
		<path class="st3" d="M1075.1,1355.6c-0.2-2.9-4.3-3.1-4.1-0.2c2.8,43.5,1.8,87.3-3.1,130.6c-0.3,2.9,3.8,3.1,4.1,0.2
			C1076.8,1443,1077.9,1399.2,1075.1,1355.6z"/>
		<path class="st3" d="M1216.9,1230.6c-0.8-2.8-4.9-1.8-4,1c3.3,10.7-1.7,21-7.5,29.4c-2.7,3.9-5.4,8.2-8.9,11.2
			c-3.9,3.4-8,2.8-12-0.2c-3.6-2.8-6.9-6.2-10.4-9.1c-3.7-3-7.6-5.9-11.6-8.4c-7.9-5.1-16.3-9.2-25-12.3c-9-3.2-20.8-7.1-22.3-19.2
			c-0.4-2.9-4.4-1.9-4,1c1.3,10.9,10.5,17,19.1,20.3c10.2,4,20.2,7.7,29.6,13.7c4.5,2.9,8.9,6.1,13.1,9.6c4,3.3,7.6,7.5,12.1,10
			c9.6,5.2,16.4-3.8,21.9-11.3C1214,1256.4,1220.9,1243.8,1216.9,1230.6z"/>
		<path class="st6" d="M1150.1,1286.9c-0.9-2.7-4.9-1.8-4,1c9,28.2,11.4,58.5,7.2,88.1c-0.4,2.9,3.7,3.1,4.1,0.2
			C1161.6,1346.3,1159.1,1315.4,1150.1,1286.9z"/>
		<path class="st6" d="M1222.4,1280.3c-0.8-2.8-4.8-1.8-4,1c9.3,32.6,11,67.5,4.6,101c-0.5,2.9,3.4,4.3,3.9,1.4
			C1233.5,1349.5,1232,1313.7,1222.4,1280.3z"/>
		<path class="st4" d="M1077.5,2621.2l-25.3-151.7c-8.6-51.4-12.4-158.4-11.3-210.7l1.2-55.3l-41-271.9h146.3l-39.5,280.1l5.3,28
			c11.6,61.6,16.2,179.1,13.8,242l-5.3,140.8L1077.5,2621.2z"/>
		<path class="st4" d="M1320.7,1931.7l-85.8,689.5h-44.2l-7.5-186.4c-2.2-53.6,5-161.8,21-212.4l0,0l-37.9-292.7L1320.7,1931.7z"/>
		<polygon class="st10" points="1147.4,1931.7 1001.1,1931.7 1003.3,1946.3 1145.3,1946.3 		"/>
		<path class="st4" d="M1107.9,2211.8l37.4-265.5h-142l38.8,257.2l-1.2,55.3c-1.1,52.3,2.7,159.3,11.3,210.7l25.3,151.7l44.2,1.3
			l5.3-140.8c2.4-62.8-2.3-180.4-13.8-242L1107.9,2211.8z"/>
		<polygon class="st10" points="1320.7,1931.7 1166.4,1929.7 1168.6,1946.3 1318.9,1946.3 		"/>
		<path class="st4" d="M1168.6,1946.3l35.8,276.1l0,0c-16,50.6-23.2,158.9-21,212.4l7.5,186.4h44.2l84-674.9L1168.6,1946.3
			L1168.6,1946.3z"/>
		<path class="st4" d="M1434,933.1v-0.4l25.1-51.9l-27-22.6l-26.7,11.3l-4.8,43.3c-1.9,6.4-2.2,11-2.6,18L1434,933.1z"/>
		<polygon class="st12" points="1429.1,342 1522,549.5 1729.8,582.8 1579.5,744.4 1614.9,972.5 1429.1,864.8 1243.3,972.5 
			1278.8,744.4 1128.4,582.8 1336.2,549.5 		"/>
		<path class="st13" d="M1211.5,569.5l-83,13.3l150.3,161.6l-35.5,228.1l185.8-107.7l185.8,107.7l-30.1-193.6
			C1440.2,772.1,1296.6,697.6,1211.5,569.5z"/>
		<g>
			<path class="st4" d="M1405.6,927c5.7-4.2,9.5-13.8,9.2-23.4c-0.2-9.6-4.4-18.8-10.3-22.4c-1-15.5-10.2-27.7-20.3-30.4
				c7.2,25.4,11.9,52.4,13.8,79.9L1405.6,927z"/>
			<path class="st10" d="M1397.4,858.3c3.7,2.1,4.9,8.2,5.7,13.5c0.5,3.1,0.9,6.4,2.2,8.9c1.4,2.6,3.6,3.8,5.3,5.6
				c3.5,3.7,6,9.2,6.4,15.8c0.5,7.2-1.2,14.3-2.8,20.9c-0.5,2.2-2.6,0.5-2.1-1.7c1.5-6.2,3.2-13.1,2.5-19.8
				c-0.7-6.6-3.8-11-7.4-14.1c-1.6-1.4-3.1-2.9-4.1-5.2c-1-2.2-1.5-4.7-1.9-7.2c-0.8-4.9-1.3-11.4-4.9-13.4
				C1394.9,860.7,1396,857.5,1397.4,858.3z"/>
		</g>
		<path class="st1" d="M1199.5,1020.1c-3.8,5.2-9.7,8.9-15.1,12.8c-5.5,3.9-10.8,8.4-13,14.3c-2.4,6.7-0.2,13.8-0.5,20.8
			c-0.3,9.2-5.2,18.1-13.1,24.2c-7.9,6-18.7,9-29.1,8.1c-1.1-21.9-1.9-45,9.9-64.2c7.7-12.6,20.8-22.4,35.8-27.7
			C1187.2,1003.8,1214.1,1000,1199.5,1020.1z"/>
	</g>
	<g>
		<g>
			<path class="st5" d="M1922.5,718.3v363.3h-159.6c-14.2,0-25.7-11.5-25.7-25.7v-312c0-14.2,11.5-25.7,25.7-25.7L1922.5,718.3
				L1922.5,718.3z"/>
			<path class="st13" d="M2543.9,890.3c-16.4,154.5-104.1,191.3-104.1,191.3h-517.2V718.3c145.1-27.9,214.3-206.7,199.3-296.3
				c2.7-20.2,2.7-38.9,0.1-54.8c10.3-30.7,40.5-24.5,40.5-24.5c99.8,15.6,105.5,222.7,104.7,290.2c-0.1,11.7,8.8,21.5,20.6,22.3
				c38.1,2.6,121.3,10.1,194.2,29.2c47.8,12.5,67.7,25,73.5,52.4C2561.6,765.7,2552.3,811.1,2543.9,890.3z"/>
		</g>
		<g>
			<path class="st7" d="M1922.5,718.3v308h-159.6c-14.2,0-25.7-11.5-25.7-25.6V744c0-14.2,11.5-25.7,25.7-25.7H1922.5z"/>
			<path class="st12" d="M2555.4,736.8c-2.6,25.3-7.2,57.2-11.5,98.2c-16.4,154.5-104.1,191.3-104.1,191.3h-517.2v-308
				c72.3-13.9,128.7-67.4,162.8-130.6c24.6-45.6,32.3-97,35.6-148.1c1.9-29.8-9.7-107.3,41.5-96.9
				c99.8,15.6,105.5,222.7,104.7,290.2c-0.1,11.7,8.8,21.5,20.6,22.3c38.1,2.6,121.3,10.1,194.2,29.2
				C2529.7,696.9,2549.5,709.4,2555.4,736.8z"/>
		</g>
		<path class="st14" d="M2348.7,1081.6h77.8l-37.6,41.1v44.5h-55.3v-38.5c0-8.8,1.9-17.5,5.4-25.6L2348.7,1081.6z"/>
		<g>
			<path class="st14" d="M2346.5,1117.2c8.5-4.1,14.1-13.5,13.8-23c-0.3-9.4-6.6-18.4-15.4-22c-1.5-15.2-15.3-27.1-30.4-29.8
				c10.8,24.9,17.8,51.4,20.7,78.4L2346.5,1117.2z"/>
			<path class="st15" d="M2334.3,1049.8c5.5,2.1,7.4,8.1,8.6,13.3c0.7,3,1.3,6.3,3.3,8.7c2,2.5,5.3,3.7,8,5.5
				c5.3,3.7,8.9,9,9.6,15.4c0.8,7.1-1.8,14-4.2,20.5c-0.8,2.1-3.9,0.5-3.1-1.7c2.3-6.1,4.7-12.8,3.7-19.4c-1-6.5-5.7-10.8-11.1-13.8
				c-2.4-1.3-4.6-2.8-6.2-5.1c-1.4-2.1-2.2-4.6-2.9-7.1c-1.2-4.8-2-11.2-7.3-13.2C2330.5,1052.1,2332.2,1049,2334.3,1049.8z"/>
		</g>
		<path class="st14" d="M1844.3,1081.6h-77.8l37.6,41.1v44.5h55.3v-38.5c0-8.8-1.9-17.5-5.4-25.6L1844.3,1081.6z"/>
		<g>
			<path class="st7" d="M2175.4,1485.9c46.4-30.2,88.8-66.7,125.4-108.2c12.9-73.1,20.4-151.5,25.8-225.6
				c22.7-2.3,48.2-3.5,70.9-1.4c17.1,99.6,23.7,199.4,16.9,300.2c-62.5,61.8-129.2,130.8-191.7,192.6L2175.4,1485.9z"/>
			<path class="st5" d="M2407.6,1405.7c3.7-5.2,6.8-10.6,9.3-16.1c-0.3,20.5-1.1,41-2.5,61.5c-62.5,61.8-129.2,130.8-191.7,192.6
				l-11-36.6C2280.9,1544.6,2349.3,1481,2407.6,1405.7z"/>
			<path class="st5" d="M2332.4,1187.3c15.8,0.4,31.5,0.8,47.3,1.1c2.3,0.1,2.4,3.6,0.1,3.5c-15.8-0.4-31.5-0.8-47.3-1.1
				C2330.3,1190.8,2330.1,1187.2,2332.4,1187.3z"/>
		</g>
		<g>
			<path class="st7" d="M2016.9,1485.9c-46.4-30.2-88.8-66.7-125.5-108.2c-12.9-73.1-20.4-151.5-25.8-225.6
				c-22.7-2.3-48.2-3.5-70.9-1.4c-17.1,99.6-23.7,199.4-16.9,300.2c62.5,61.8,129.2,130.8,191.7,192.6L2016.9,1485.9z"/>
			<path class="st5" d="M1972.5,1589.6c1.1,11.8,1.9,23.7,2.6,35.5l-5.5,18.4c-62.5-61.8-129.2-130.8-191.7-192.6
				c-1.8-26.7-2.6-53.4-2.6-80C1809.5,1462.6,1887.2,1532.7,1972.5,1589.6z"/>
			<path class="st5" d="M1798.6,1190c20.9-1.1,41.7-2.1,62.6-3.2c2.3-0.1,2.4,3.4,0.2,3.5c-20.9,1.1-41.7,2.1-62.6,3.2
				C1796.5,1193.6,1796.3,1190.1,1798.6,1190z"/>
		</g>
		<g>
			<g>
				<g>
					<path class="st16" d="M1942.3,2587.9c0,8.7,0.1,17.1,0.2,25.2h50.2l2.8-25.2H1942.3z"/>
					<path class="st16" d="M2190.9,2587.9c0,8.7,0.1,17.1,0.2,25.2h50.2l2.8-25.2H2190.9z"/>
					<path class="st5" d="M2245.9,1903.4c-133,14.6-152.3,90.8-152.3,90.8l53.7,317.3l28.2,290.6h89.5
						C2292.1,2238.7,2245.9,1903.4,2245.9,1903.4z"/>
					<path class="st7" d="M2129.3,1989.8c0,0,59.2-37.9,66.1-71.1l-239.8,7.9c0,0-33.4,428.5-32.4,661.3h91.5L2129.3,1989.8z"/>
					<path class="st7" d="M2122.6,2025l-107.9,577.1h-91.5c-0.7-173.2,17.6-468.9,27-601.7C2005.9,2018.4,2064.2,2027.4,2122.6,2025
						z"/>
					<path class="st5" d="M1950.2,2000.4c3.2-45.7,5.4-73.8,5.4-73.8l239.8-7.9c-6.9,33.2-66.1,71.1-66.1,71.1l-6.7,35.1
						C2064.2,2027.4,2005.9,2018.4,1950.2,2000.4z"/>
					<path class="st5" d="M2175.1,1952.1c11.8-11.8,22-25.2,24.7-38l-224.5-10.6c0,0-1.8,24.1-2.7,34.2
						C2039.5,1953.2,2108,1959,2175.1,1952.1z"/>
				</g>
				<g>
					<path class="st16" d="M1995.5,2609.3l-58.8-1.6c-16.4,17-28.1,38.5-33.8,61.4h106.1C2007,2648.7,2002.6,2628.7,1995.5,2609.3z"
						/>
					<path class="st3" d="M1903,2669.1c-0.6,2.2-1.1,4.4-1.6,6.6c-0.7,3.5,1.9,6.8,5.5,6.8h97.3c3.2,0,5.8-2.8,5.6-6
						c-0.2-2.5-0.4-4.9-0.7-7.4H1903z"/>
				</g>
				<g>
					<path class="st16" d="M2187.8,2609.3l58.8-1.6c16.4,17,115,38.5,120.7,61.4h-193.1C2176.3,2648.7,2180.7,2628.7,2187.8,2609.3z
						"/>
					<path class="st3" d="M2367.2,2669.1c0.6,2.2,1.1,4.4,1.6,6.6c0.7,3.5-1.9,6.8-5.5,6.8h-184.2c-3.2,0-5.8-2.8-5.6-6
						c0.2-2.5,0.4-4.9,0.7-7.4H2367.2z"/>
				</g>
			</g>
			<path class="st5" d="M1988.9,2334.7c-7.3-12.5-14.9-24.7-20.9-37.9c-6.1-13.4-10.5-27.2-14.9-41.2c-0.5-1.7-3-1-2.7,0.7
				c2.7,14.5,7.9,28.6,13.9,42.1c5.9,13.4,12.8,26.8,22,38.3C1987.5,2338.2,1989.8,2336.3,1988.9,2334.7z"/>
			<path class="st5" d="M1937.7,2579.4h58.3c2.3,0,2.4,3.5,0.2,3.5h-58.3C1935.6,2582.9,1935.5,2579.4,1937.7,2579.4z"/>
		</g>
		<g>
			<path class="st17" d="M2222.1,1528.8c-0.7-15.6-11.6-29.1-27.7-34.9c-34.2-12.4-72.5-16.2-109.8-13.8
				c-34.3,2.3-67.9,9.6-100.8,19.2c-21.4,6.3-34.8,25.4-31.5,45.1c19.6,117.3,26.3,238.1,18.7,356.8c87.9,25.5,175.6,32.9,258.7,3.9
				C2232.6,1783.7,2227.8,1650.4,2222.1,1528.8z"/>
			<path class="st18" d="M2098.2,1513.8c-9.6,4.9-18.7,10.9-26.9,17.9c-3.6-6.6-6.9-13.4-10.3-20.1c-1.9-3.7-3.8-7.3-5.7-11
				c-1.8-3.6-3.5-7.6-6-10.7c-1-1.3-3,0.1-2.7,1.6c1,3.7,3.3,7.4,5,10.8c1.9,3.8,3.8,7.6,5.7,11.4c3.8,7.5,7.8,14.9,11.3,22.5
				c0.6,1.4,2.5,1.3,3.5,0.4c8.7-7.4,18-13.9,28.1-19.3C2102.7,1516.1,2100.6,1512.7,2098.2,1513.8z"/>
			<path class="st18" d="M2132.9,1513.9c-0.1-3.2-0.2-6.4-0.3-9.6c0-2.8,0.6-6.7-0.7-9.2c-0.5-1-2-0.9-2.5,0
				c-1.4,2.5-0.7,6.1-0.7,8.9c0,3.3,0.1,6.7,0.3,10c0.2,5.3,0.6,10.6,1.1,15.9c-4.4-2.5-8.8-5-13.2-7.5c-2.7-1.5-5.4-3-8.1-4.5
				c-2.7-1.5-5.3-3.3-8.4-3.9c-1.1-0.2-1.8,1-1.1,1.8c2,2.4,4.9,3.7,7.6,5.3c2.7,1.6,5.3,3.2,8,4.7c5.5,3.2,11,6.3,16.5,9.4
				c1.2,0.7,3.2-0.2,3-1.7C2133.7,1527,2133.2,1520.4,2132.9,1513.9z"/>
			<polygon class="st19" points="2099.3,1515.8 2086.8,1525.7 2093,1535.4 2091.9,1867.9 2116.7,1880.8 2137.7,1867.9 
				2108.7,1537.3 2112.3,1524.2 			"/>
			<path class="st7" d="M1944.8,1568c-4.2-28.4,7.4-59.1,30.3-67.5c17.1-6.2,38.8-12.1,57.9-13.5c15.5,64.6,79.3,196.7,79.3,196.7
				s49.6-151.1,20.4-203.2c18.6-1,54.2,4.3,72.9,13.8c17.6,9,28.6,37.9,29.9,60.3c8.1,138.7,34.1,282.8,45,423.4
				c-13.5,6.3-31.2,6.5-45.8,7.8c-23.7,2.1-47.6,3.2-71.4,4.1c-77.3,2.9-153.6,0.4-226.7-27.7
				C1947.2,1830.6,1964.2,1699.2,1944.8,1568z"/>
			<path class="st5" d="M1972.5,1589.6c11.1,125.2,0.4,252.7-23.7,377.1c-4.1-1.4-8.2-2.9-12.3-4.4c10.5-130.8,27.4-261.3,8.6-391.7
				C1954.1,1577.1,1963.3,1583.4,1972.5,1589.6z"/>
			<g>
				<path class="st5" d="M2157.3,1597.3l26.2-9c2.2-0.8,4.4-1.5,6.6-2.2c1.9-0.7,4-1.2,5.8-2.1c3.8-2.1,2.3-6.6,1.2-9.8
					c-5.8-17.7-11.7-35.4-17.5-53.2c-0.7-2.2,2.7-3.2,3.4-1.1c5,15.1,9.9,30.1,14.9,45.2c1.2,3.5,2.5,7,3.4,10.6
					c0.6,2.6,1,5.5-0.2,8c-1.3,2.5-3.8,3.7-6.3,4.6c-3.6,1.3-7.3,2.5-10.9,3.8c-8.5,2.9-16.9,5.8-25.4,8.7
					C2156.2,1601.4,2155.1,1598,2157.3,1597.3z"/>
				<path class="st5" d="M2159.5,1598.2c9.9,10.2,19.7,20.4,29.6,30.7c1.6,1.6-0.8,4.2-2.4,2.6c-9.9-10.2-19.7-20.4-29.6-30.7
					C2155.6,1599.2,2157.9,1596.5,2159.5,1598.2z"/>
				<path class="st5" d="M2119.5,1713c22.4-28,44.7-56.1,67.1-84.1c1.4-1.8,4,0.6,2.6,2.4c-22.3,28-44.7,56.1-67.1,84.1
					C2120.7,1717.2,2118.1,1714.8,2119.5,1713z"/>
			</g>
			<g>
				<path class="st5" d="M2049.3,1603.5l-27.2-5.2c-2.3-0.4-4.5-0.9-6.8-1.3c-2-0.4-4.1-0.6-6-1.3c-4-1.5-3.2-6.2-2.6-9.6
					c3.3-18.4,6.6-36.7,9.9-55.1c0.4-2.2-3.1-2.8-3.5-0.6c-2.8,15.6-5.6,31.2-8.4,46.8c-0.7,3.6-1.5,7.3-1.9,11
					c-0.3,2.7-0.2,5.6,1.4,7.9c1.6,2.3,4.2,3.1,6.8,3.6c3.8,0.8,7.6,1.5,11.4,2.2c8.8,1.7,17.6,3.4,26.3,5.1
					C2051,1607.4,2051.6,1603.9,2049.3,1603.5z"/>
				<path class="st5" d="M2047.2,1604.7c-8.3,11.5-16.7,23-25,34.5c-1.3,1.8,1.4,4.1,2.7,2.2c8.3-11.5,16.7-23,25-34.5
					C2051.3,1605.1,2048.6,1602.8,2047.2,1604.7z"/>
				<path class="st5" d="M2102.8,1712.8c-26-24.7-52.1-49.3-78.1-74c-1.7-1.6-3.9,1.2-2.2,2.7c26,24.7,52.1,49.3,78.1,74
					C2102.2,1717.1,2104.5,1714.4,2102.8,1712.8z"/>
			</g>
			<path class="st5" d="M2114,1689.6c2.5,39.6,4.5,79.2,5.9,118.8c1.4,39.6,2.3,79.3,2.6,119c0.2,22.3,0.2,44.7,0,67
				c0,2.3-3.6,2.4-3.5,0.2c0.3-39.7,0.1-79.3-0.7-119c-0.8-39.7-2.1-79.3-4-118.9c-1.1-22.3-2.3-44.6-3.7-66.9
				C2110.3,1687.5,2113.8,1687.3,2114,1689.6z"/>
			<path class="st5" d="M2175.3,1869.6c20.8,5.8,43.1,4.9,63.4-2.6c2.1-0.8,3.2,2.6,1.1,3.4c-20.8,7.7-43.8,8.6-65.2,2.6
				C2172.3,1872.4,2173.1,1869,2175.3,1869.6z"/>
			<path class="st5" d="M1985.1,1874.2c20.8,5.8,43.1,4.9,63.4-2.6c2.1-0.8,3.2,2.6,1.1,3.4c-20.8,7.7-43.8,8.6-65.2,2.6
				C1982.2,1877.1,1982.9,1873.6,1985.1,1874.2z"/>
		</g>
		<g>
			<path class="st20" d="M2162.3,1369.1c6.2-21.5,4.7-45.1-4.3-65.6c1.2-5,0.2-10.8-2.3-15.3c-2.6-4.5-6.5-8.1-11-10.6
				c-6.1-3.4-13.4-4.9-20-2.9c-6.6,2-12.2,8-12.5,14.9c-5.2-3.1-9.4-6.1-15.1-8.1s-11.9-2.7-17.7-1.1s-10.9,6-12.6,11.8
				c-1.6,5.8,1,12.7,6.4,15.2c-4.4-5.4-14.6-6.4-20.9-3.6c-6.4,2.8-11,8.7-13.7,15.1c-2.2,5.1-3.3,10.8-2.3,16.2
				c1,5.4,4.3,10.6,9.4,12.9c-9.5,4.7-12.6,16.3-10.6,26.7c2,10.4,8.5,19.3,15.4,27.4s14.5,15.7,19.2,25.2L2162.3,1369.1z"/>
			<path class="st11" d="M2159.2,1371.3c5.6-20.7,4.2-43.4-3.8-63.2c1.1-4.8,0.2-10.4-2.1-14.7c-2.3-4.3-5.8-7.7-9.8-10.2
				c-5.4-3.3-11.9-4.8-17.8-2.8c-5.9,1.9-10.9,7.7-11.1,14.4c-4.6-2.9-8.4-5.9-13.4-7.8s-10.6-2.6-15.7-1.1
				c-5.1,1.6-9.7,5.8-11.2,11.3c-1.4,5.6,0.9,12.2,5.7,14.6c-3.9-5.2-12.9-6.2-18.6-3.5c-5.7,2.7-9.7,8.3-12.2,14.5
				c-1.9,4.9-2.9,10.3-2.1,15.6c0.9,5.2,3.9,10.2,8.3,12.4c-8.4,4.6-11.2,15.7-9.4,25.7c1.8,10,7.6,18.6,13.7,26.4
				c6.2,7.7,12.9,15.1,17.1,24.3L2159.2,1371.3z"/>
			<g>
				<g>
					<g>
						<g>
							<path class="st14" d="M2061.4,1398.5c2.2,28.6,1.6,57.4-2,85.9c-0.7,5.8,1.7,11.5,6.5,14.8c13.1,9.2,29.8,13.2,45.6,10.9
								c8-1.2,13.6-8.6,12.9-16.6c-1.5-18.5-2-36.1-1.6-55.2C2107.2,1418.4,2085.4,1406.3,2061.4,1398.5z"/>
							<path class="st15" d="M2122.8,1438.3c-15.7-19.9-37.4-32-61.5-39.7c0.6,7.5,1,15.1,1.2,22.6c9.5,31.8,34.2,51.6,61.1,59.4
								C2122.8,1466.6,2122.5,1452.9,2122.8,1438.3z"/>
						</g>
						<g>
							<path class="st14" d="M2162.6,1351.9c5.3,39.9-3,108.3-33.2,111.4c-35.4,3.7-57.2-27.9-65.1-56.9c0.1,0.5-3.2,2.4-6.7,2.2
								c-3.4-0.2-7.9-4.2-9.8-7c-3.6-5.4-7.3-13.8-3.4-20c4.7-7.4,15-8.9,19.4-0.2c-0.3-14.5,4.4-28,9.4-41.6c1.7-4.4,5.2-8,9.6-9.6
								c20.5-7.1,45.6-7.6,66.4-1.3c5.2,1.6,9.1,5.8,10.6,11C2161.1,1344.1,2162.1,1348.6,2162.6,1351.9z"/>
							<path class="st11" d="M2119.9,1354.4c-6.4-8.2-24.1-2.5-30.6,2.7c-1.2,1-2.6,2.2-2.5,3.9c0.1,0.9,0.6,1.6,1.4,1.9
								c2,0.6,3.9-1.1,5.6-2c2.2-1.2,4.5-2,7-2.6c3-0.7,6.1-0.8,9.2-0.5c2.9,0.3,5.8,1.7,8.8,1.2
								C2120.9,1358.7,2121,1355.8,2119.9,1354.4z"/>
							<path class="st11" d="M2110.4,1368.7c-0.2-0.5-0.4-0.9-0.8-1.3c-0.4-0.4-0.8-0.7-1.3-0.8c-0.5-0.2-1-0.4-1.5-0.3
								c-0.4,0.1-0.7,0.1-1,0.1c-0.7,0.2-1.2,0.5-1.7,1c-0.2,0.3-0.4,0.5-0.6,0.8c-0.3,0.6-0.5,1.3-0.5,2v0.4c0,0.5,0.1,1,0.3,1.5
								c0.2,0.5,0.4,0.9,0.8,1.3c0.4,0.4,0.8,0.7,1.3,0.8c0.5,0.2,1,0.4,1.5,0.3l1-0.1c0.7-0.2,1.2-0.5,1.7-1
								c0.2-0.3,0.4-0.5,0.6-0.8c0.4-0.6,0.5-1.3,0.5-2v-0.4C2110.8,1369.7,2110.7,1369.2,2110.4,1368.7z"/>
							<path class="st11" d="M2153.4,1371.1c-0.2-0.5-0.4-0.9-0.8-1.3c-0.4-0.4-0.8-0.7-1.3-0.8c-0.5-0.2-1-0.4-1.5-0.3
								c-0.4,0.1-0.7,0.1-1,0.1c-0.7,0.2-1.2,0.5-1.7,1c-0.2,0.3-0.4,0.5-0.6,0.8c-0.4,0.6-0.5,1.3-0.5,2v0.4c0,0.5,0.1,1,0.3,1.5
								c0.2,0.5,0.4,0.9,0.8,1.3c0.4,0.4,0.8,0.7,1.3,0.8c0.5,0.2,1,0.4,1.5,0.3l1-0.1c0.7-0.2,1.2-0.5,1.7-1
								c0.2-0.3,0.4-0.5,0.6-0.8c0.4-0.6,0.5-1.3,0.5-2v-0.4C2153.8,1372.1,2153.6,1371.6,2153.4,1371.1z"/>
							<path class="st11" d="M2161.2,1360.1c-1.5-2.9-4.8-4.5-7.9-5.3c-3.1-0.8-6.2-0.9-9.3-0.2c-1.4,0.3-2.3,1.8-2.1,3.2
								c0.3,2.4,2.3,2.5,4.2,2.5c2.6,0,5,0.4,7.3,1.4c1.6,0.7,9.9,4.8,8.2-0.4C2161.5,1360.8,2161.4,1360.4,2161.2,1360.1z"/>
							<path class="st21" d="M2124.5,1438.3c-1.2-0.4-2.6,0-3.8,0c-1.1,0-2.4-0.1-3.4-0.2c-1.2-0.2-2.3-0.4-3.5-0.7
								c-1.2-0.3-2.4-0.9-3.7-0.8c-1.4,0.1-1.9,1.5-1.1,2.6c0.9,1.1,2.3,1.6,3.6,2c1.2,0.4,2.5,0.7,3.8,0.9c1.4,0.2,2.7,0.3,4.1,0.4
								c1.4,0,3.2,0.2,4.4-0.6C2126.5,1441,2126.1,1438.8,2124.5,1438.3z"/>
							<path class="st21" d="M2060.5,1396.3c-1.2,0.4-3-0.2-3.2-1.7c-0.1-0.7,0.2-1.3,0.7-1.9c0.4-0.6,1.1-0.9,1.7-0.9
								c1,0,1.8-1,1.5-2c-1.2-4.2-4.5-8.5-9.4-8c-2.2,0.2-4.1,1.4-5,3.4c-0.4,0.9-0.5,2-0.3,2.9c0.2,0.6,0.9,2,1.7,1.3
								c0.5-0.4,0.3-1.1,0.5-1.7c0.2-0.6,0.4-1.2,0.8-1.7c0.7-1.1,1.9-1.4,3.2-1.3c2.5,0.2,4.1,2.2,5,4.3c-2.2,1-3.6,3.4-3,6
								c0.7,2.7,3.8,4.5,6.6,3.7C2062.9,1398.4,2062.2,1395.8,2060.5,1396.3z"/>
						</g>
					</g>
					<path class="st15" d="M2143.5,1391.3c-1.8-1.7-4.1-2.8-6.1-4.2c-2.2-1.6-3.1-3.4-2.9-6.1c0.2-1.9-2.3-2.1-3.2-0.9
						c-2.7,3.7,1,8.4,3.9,10.5c1.8,1.3,3.8,2.2,5.4,3.8c1.4,1.4,2.4,3.2,3,5c1.2,3.8,0.6,8-1.9,11.2c-2.7,3.4-6.4,4.3-10.4,5.3
						c-1.3,0.3-1.2,2.1,0,2.5c4.2,1.3,8.9-1,11.9-3.7c3.4-2.9,5.3-7.3,5.2-11.8C2148.5,1398.7,2146.7,1394.3,2143.5,1391.3z"/>
				</g>
				<path class="st11" d="M2130.1,1430.2c-12.7,3.7-26.4-1.2-33.7-12.3c-1.3-1.9,1.7-3.8,3-1.9c6.4,9.7,18.5,14.1,29.7,10.8
					C2131.2,1426.2,2132.3,1429.5,2130.1,1430.2z"/>
			</g>
		</g>
		<path class="st5" d="M2236.2,1549.9c2.7,52.9,7.5,105.6,14.4,158.1c1.9,14.7,4,29.4,6.3,44.1c0.3,2.2-3.2,2.4-3.5,0.2
			c-8-52.3-14-105-17.9-157.8c-1.1-14.8-2-29.6-2.8-44.4C2232.5,1547.8,2236,1547.6,2236.2,1549.9z"/>
		<g>
			<path class="st14" d="M1846.5,1117.2c-8.5-4.1-14.2-13.5-13.8-23s6.6-18.4,15.4-22c1.5-15.2,15.3-27.1,30.4-29.8
				c-10.8,24.9-17.8,51.4-20.7,78.4L1846.5,1117.2z"/>
			<path class="st15" d="M1858.7,1049.8c-5.5,2.1-7.4,8.1-8.6,13.3c-0.7,3-1.3,6.3-3.3,8.7c-2,2.5-5.3,3.7-8,5.5
				c-5.3,3.7-8.9,9-9.6,15.4c-0.8,7.1,1.8,14,4.2,20.5c0.8,2.1,3.9,0.5,3.1-1.7c-2.3-6.1-4.7-12.8-3.7-19.4
				c1-6.5,5.7-10.8,11.1-13.8c2.4-1.3,4.6-2.8,6.2-5.1c1.4-2.1,2.2-4.6,2.8-7.1c1.2-4.8,2-11.2,7.3-13.2
				C1862.5,1052.1,1860.8,1049,1858.7,1049.8z"/>
		</g>
	</g>
</g>
</svg>
